<svg xmlns="http://www.w3.org/2000/svg" viewBox="-8 -8 136 136" width="76" height="76" role="img" aria-label="Guildy gem guide — offer">
  <title>Guildy gem guide — offer</title>
  <defs><linearGradient id="go1R0" x1="0" y1="0" x2="0.3" y2="1"><stop offset="0" stop-color="#D9C2F4"></stop><stop offset="1" stop-color="#B492EA"></stop></linearGradient><linearGradient id="go1R1" x1="0" y1="0" x2="0.3" y2="1"><stop offset="0" stop-color="#C2A0EC"></stop><stop offset="1" stop-color="#9B72DE"></stop></linearGradient><linearGradient id="go1R2" x1="0" y1="0" x2="0.3" y2="1"><stop offset="0" stop-color="#9E78DC"></stop><stop offset="1" stop-color="#6D3DBE"></stop></linearGradient><linearGradient id="go1R3" x1="0" y1="0" x2="0.3" y2="1"><stop offset="0" stop-color="#7E54C8"></stop><stop offset="1" stop-color="#5226A0"></stop></linearGradient><linearGradient id="go1R4" x1="0" y1="0" x2="0.3" y2="1"><stop offset="0" stop-color="#8A5ECF"></stop><stop offset="1" stop-color="#5A2BA8"></stop></linearGradient><linearGradient id="go1R5" x1="0" y1="0" x2="0.3" y2="1"><stop offset="0" stop-color="#A885E2"></stop><stop offset="1" stop-color="#7344C4"></stop></linearGradient><linearGradient id="go1R6" x1="0" y1="0" x2="0.3" y2="1"><stop offset="0" stop-color="#C6A6EE"></stop><stop offset="1" stop-color="#9068D8"></stop></linearGradient><linearGradient id="go1R7" x1="0" y1="0" x2="0.3" y2="1"><stop offset="0" stop-color="#E6D6FA"></stop><stop offset="1" stop-color="#C2A0EC"></stop></linearGradient><linearGradient id="go1C" x1="0" y1="0" x2="0.3" y2="1"><stop offset="0" stop-color="#F6EFFF"></stop><stop offset="1" stop-color="#CBADF0"></stop></linearGradient><radialGradient id="go1CORE" cx="50%" cy="46%" r="55%"><stop offset="0" stop-color="#FFFFFF" stop-opacity="0.95"></stop><stop offset="34%" stop-color="#F0E4FF" stop-opacity="0.55"></stop><stop offset="100%" stop-color="#D9C2F4" stop-opacity="0"></stop></radialGradient><radialGradient id="go1BLOOM" cx="50%" cy="48%" r="50%"><stop offset="0" stop-color="#B98CF0" stop-opacity="0.6"></stop><stop offset="40%" stop-color="#8A5ED2" stop-opacity="0.26"></stop><stop offset="72%" stop-color="#7C50CE" stop-opacity="0"></stop></radialGradient><radialGradient id="go1SH" cx="50%" cy="50%" r="50%"><stop offset="0" stop-color="#34176A" stop-opacity="0.3"></stop><stop offset="0.7" stop-color="#34176A" stop-opacity="0"></stop></radialGradient></defs>
  <g transform="translate(60 58) scale(1.14) translate(-60 -58)"><circle cx="60" cy="56" r="56" fill="url(#go1BLOOM)"></circle></g><ellipse cx="60" cy="110" rx="30" ry="5.5" fill="url(#go1SH)"></ellipse><polygon points="60,12 92.53,25.47 74.44,39.56 61,34" fill="url(#go1R0)"></polygon><polygon points="92.53,25.47 106,58 80,53 74.44,39.56" fill="url(#go1R1)"></polygon><polygon points="106,58 92.53,90.53 74.44,66.44 80,53" fill="url(#go1R2)"></polygon><polygon points="92.53,90.53 60,104 61,72 74.44,66.44" fill="url(#go1R3)"></polygon><polygon points="60,104 27.47,90.53 47.56,66.44 61,72" fill="url(#go1R4)"></polygon><polygon points="27.47,90.53 14,58 42,53 47.56,66.44" fill="url(#go1R5)"></polygon><polygon points="14,58 27.47,25.47 47.56,39.56 42,53" fill="url(#go1R6)"></polygon><polygon points="27.47,25.47 60,12 61,34 47.56,39.56" fill="url(#go1R7)"></polygon><polygon points="61,34 74.44,39.56 80,53 74.44,66.44 61,72 47.56,66.44 42,53 47.56,39.56" fill="url(#go1C)"></polygon><g stroke="#EBDDFB" stroke-width="1.25" stroke-opacity="0.8" stroke-linejoin="round" stroke-linecap="round"><polygon points="61,34 74.44,39.56 80,53 74.44,66.44 61,72 47.56,66.44 42,53 47.56,39.56" fill="none"></polygon><line x1="60" y1="12" x2="61" y2="34"></line><line x1="92.53" y1="25.47" x2="74.44" y2="39.56"></line><line x1="106" y1="58" x2="80" y2="53"></line><line x1="92.53" y1="90.53" x2="74.44" y2="66.44"></line><line x1="60" y1="104" x2="61" y2="72"></line><line x1="27.47" y1="90.53" x2="47.56" y2="66.44"></line><line x1="14" y1="58" x2="42" y2="53"></line><line x1="27.47" y1="25.47" x2="47.56" y2="39.56"></line></g><circle cx="61" cy="50" r="20" fill="url(#go1CORE)" opacity="0.95"></circle><polygon points="60,12 92.53,25.47 106,58 92.53,90.53 60,104 27.47,90.53 14,58 27.47,25.47" fill="none" stroke="#F3EBFF" stroke-width="1.7" stroke-opacity="0.9" stroke-linejoin="round"></polygon><polygon points="61,25 64.12,45.88 76.84,49 64.12,52.12 61,73 57.88,52.12 45.16,49 57.88,45.88" fill="#FFFFFF" fill-opacity="0.97"></polygon><polygon points="93,22 94.04,28.96 98.6,30 94.04,31.04 93,38 91.96,31.04 87.4,30 91.96,28.96" fill="#FFFFFF" fill-opacity="0.92"></polygon><polygon points="101,38.4 101.468,41.532 103.88,42 101.468,42.468 101,45.6 100.532,42.468 98.12,42 100.532,41.532" fill="#FFFFFF" fill-opacity="0.8"></polygon>
</svg>